<svg width="1400" height="920" viewBox="0 0 1400 920" fill="none" xmlns="http://www.w3.org/2000/svg">
  <rect width="1400" height="920" rx="40" fill="#07111D"/>
  <circle cx="230" cy="170" r="200" fill="#4D7CFF" fill-opacity="0.14"/>
  <circle cx="1180" cy="180" r="220" fill="#FF8C5A" fill-opacity="0.16"/>

  <rect x="100" y="130" width="1200" height="660" rx="30" fill="#0B1728" stroke="rgba(255,255,255,0.1)"/>
  <rect x="150" y="180" width="320" height="560" rx="28" fill="#101E34"/>
  <rect x="540" y="160" width="320" height="600" rx="30" fill="url(#proCard)" stroke="rgba(255,255,255,0.16)"/>
  <rect x="930" y="180" width="320" height="560" rx="28" fill="#101E34"/>

  <rect x="188" y="226" width="140" height="20" rx="10" fill="rgba(255,255,255,0.08)"/>
  <rect x="188" y="270" width="110" height="56" rx="18" fill="rgba(255,255,255,0.10)"/>
  <rect x="578" y="206" width="140" height="20" rx="10" fill="rgba(255,255,255,0.18)"/>
  <rect x="578" y="250" width="140" height="62" rx="20" fill="rgba(255,255,255,0.92)"/>
  <rect x="968" y="226" width="140" height="20" rx="10" fill="rgba(255,255,255,0.08)"/>
  <rect x="968" y="270" width="150" height="56" rx="18" fill="rgba(255,255,255,0.10)"/>

  <g opacity="0.8">
    <rect x="188" y="380" width="220" height="18" rx="9" fill="rgba(255,255,255,0.08)"/>
    <rect x="188" y="418" width="180" height="18" rx="9" fill="rgba(255,255,255,0.06)"/>
    <rect x="188" y="456" width="210" height="18" rx="9" fill="rgba(255,255,255,0.05)"/>

    <rect x="578" y="360" width="220" height="18" rx="9" fill="rgba(255,255,255,0.22)"/>
    <rect x="578" y="398" width="200" height="18" rx="9" fill="rgba(255,255,255,0.18)"/>
    <rect x="578" y="436" width="240" height="18" rx="9" fill="rgba(255,255,255,0.16)"/>
    <rect x="578" y="474" width="180" height="18" rx="9" fill="rgba(255,255,255,0.14)"/>

    <rect x="968" y="380" width="220" height="18" rx="9" fill="rgba(255,255,255,0.08)"/>
    <rect x="968" y="418" width="200" height="18" rx="9" fill="rgba(255,255,255,0.06)"/>
    <rect x="968" y="456" width="170" height="18" rx="9" fill="rgba(255,255,255,0.05)"/>
  </g>

  <rect x="188" y="620" width="180" height="44" rx="18" fill="rgba(255,255,255,0.08)"/>
  <rect x="578" y="628" width="220" height="46" rx="18" fill="white"/>
  <rect x="968" y="620" width="180" height="44" rx="18" fill="rgba(255,255,255,0.08)"/>

  <defs>
    <linearGradient id="proCard" x1="540" y1="160" x2="860" y2="760" gradientUnits="userSpaceOnUse">
      <stop stop-color="#FF9B62" stop-opacity="0.26"/>
      <stop offset="0.45" stop-color="#FF7677" stop-opacity="0.18"/>
      <stop offset="1" stop-color="#8E6BFF" stop-opacity="0.22"/>
    </linearGradient>
  </defs>
</svg>
